<svg xmlns="http://www.w3.org/2000/svg" width="512" height="512"><path d="M187.857 27C148.571 73.429 125 95.571 125 95.571l-66.429 45-10.714 9.286.714 7.143 22.858-.714 25-12.857 30-20 40.714-30 33.571-30 5-22.858-4.285-10zM240 111.286l50.714-7.857 41.429-7.143 20.714-12.857 20.714 2.142 7.143 12.143-4.285 13.572-25.715 4.285h-20L300 117l-22.857 4.286-40.714 7.143-35 8.571-28.572 10.714-12.143-8.571-2.143-10 4.286-10.714 21.429-.715 24.285-2.143zM19.286 282l-10 31.429L8.57 332l7.143 16.429L27.857 352l20.714-7.857L50 326.286l-4.286-22.143-10-12.143-11.428-9.286zM161.429 195.571l-2.143 22.143 9.285 8.572 20 11.428 2.143 35-3.571 38.572-10.714 29.285-11.429 25-10 7.143-2.143 12.143V407l6.429 7.143 12.857-1.429 8.571-8.571 11.429-22.857L200.714 357l7.143-16.429 5.714-20.714V302l.715-18.571.714-20.715-1.429-39.285L205.714 212l-13.571-12.143-10-6.428-16.429-2.143zM252.857 145.571l-.714 235-11.429 2.143-5.714-2.857-2.143 16.429L235 414.143l7.143 10.714 4.286 10 7.142 9.286 15 2.857s9.286-6.429 10-9.286c.715-2.857 4.286-11.428 4.286-11.428l4.286-27.857-1.429-212.858 8.572-10L295 162l-2.857-10.714-15-8.572-17.857-4.285zM393.571 232l-4.285 22.143 6.428 15 18.572 32.143L430 317.714l10.714 16.429 13.572-.714 3.571-18.572V278.43l-12.143-10.715-15-16.428L410 239.143z"/></svg>