<svg xmlns="http://www.w3.org/2000/svg" width="512" height="512"><path d="M157.288 82.44l10.848 3.797 18.44-2.17 14.644-.542 15.73-6.508 5.965-1.627 4.34-8.678 3.253-3.254 8.678 1.084 8.678 9.763 4.34 4.881s-5.967 10.848-7.594 13.017c-1.627 2.17-11.932 15.187-11.932 15.187l-2.17 8.135.543 4.882s2.712 7.05-.543 7.05c-3.254 0-15.186 2.712-15.186 2.712s2.17-8.135 1.627-10.305c-.542-2.17-1.085-4.88-.542-8.678.542-3.796 6.508-15.186 6.508-15.186l2.17-6.508-4.34-2.712-14.1 7.05S194.168 92.747 189.83 96c-4.34 3.254-8.678 5.424-8.678 5.424l-7.051 1.627-8.136-3.254-3.797-6.509-2.711-2.712-.543-5.966z"/><path d="M164.881 137.22l28.746-15.728 22.237-3.797-.542 12.474-34.712 11.933-13.56 6.508-7.05 2.17v-8.136l-2.17-7.05z"/><path d="M131.254 107.932l20.068 6.509 9.763 6.508-3.254 14.644-2.17 28.746-3.254 15.186s-5.424 21.153-7.051 24.407c-1.627 3.254-2.712 13.017-3.254 15.729-.543 2.712-5.424 23.322-5.424 23.322s-4.339 9.763-5.424 12.475c-1.085 2.711-2.712 7.05-3.254 10.847-.542 3.797 2.17 3.797-.542 10.305-2.712 6.509 2.17-.542-5.424 10.305-7.593 10.848-9.22 13.56-10.848 17.899-1.627 4.339-1.627 7.05-9.22 15.728-7.593 8.678-7.05 10.848-14.644 15.73-7.593 4.88-10.305 8.677-13.56 10.847-3.254 2.17-7.05 4.339-14.101 10.305-7.05 5.966-11.39 8.135-11.39 8.135l-10.305-4.339-4.339-7.593s7.593-1.085 9.763-1.627 11.932-2.17 20.068-9.22c8.135-7.051 14.101-12.475 15.728-15.73 1.628-3.253 11.39-15.728 14.102-20.067 2.712-4.339 8.136-10.847 11.39-16.271 3.254-5.424 7.593-8.136 8.678-13.56 1.085-5.423 2.712-8.677 4.881-15.186 2.17-6.508 5.966-14.644 6.509-18.44.542-3.797 4.339-11.933 5.423-16.814 1.085-4.881 2.712-7.593 4.882-15.187 2.17-7.593 3.254-10.305 3.796-13.017.543-2.711 2.712-4.339 2.712-8.135 0-3.797 2.712-16.271 3.255-20.61.542-4.34 2.17-10.848 2.711-15.187.543-4.339.543-9.762 1.628-14.101 1.084-4.34 2.169-11.39 2.169-11.39l-2.712-6.509-8.678-1.084-7.05.542-4.882-8.136zM180.068 165.966s12.474 1.627 16.271-1.085c3.797-2.712 18.983-7.05 21.153-7.593 2.169-.542 11.39-3.796 11.39-3.796l17.355 5.966 2.712 11.39s-4.339 12.474-5.966 14.644c-1.627 2.169-8.136 10.305-8.136 10.305l-3.254 9.762-13.56 1.085 4.882-13.56s.543-5.965.543-8.135 2.17-10.847 2.17-10.847l-5.425-2.712s-11.39 5.966-15.186 8.135c-3.797 2.17-17.356 5.424-17.356 5.424l-5.424-3.796-2.712-10.306z"/><path d="M157.288 182.237l17.898 16.814 5.424 15.729s8.136-2.17 10.305-2.712c2.17-.543 14.644-4.882 14.644-4.882l32.543-.542 8.135 4.339 2.17 5.966s-15.729 5.424-18.983 5.424c-3.255 0-17.356 1.627-17.356 1.627l-12.475 3.797-11.932 5.966s-.542-2.712 0 2.712c.542 5.423 4.881 5.423 4.881 5.423l19.526 12.475 22.78-5.966 8.677 4.339-2.711 9.762s-11.39-1.084-13.56.543c-2.17 1.627-12.474 3.796-12.474 3.796l-4.34 5.967 1.628 24.949h10.847l15.73 6.508 6.508 6.509-6.509 7.05h-9.763l-21.152-6.508-13.017 3.254-16.271 3.797-14.644 4.881-4.882 1.085-7.593 5.966-7.05-2.712-2.713-2.17-2.712-4.88-2.711-7.051v-4.34l9.22-.542s6.508-.542 10.847-.542c4.34 0 15.73-3.797 18.983-3.797 3.255 0 14.645-1.627 14.645-1.627l3.796-2.17 3.254-11.932-2.17-14.101-14.1 4.881-14.103 7.05-9.762.543-4.34-5.966-2.169-5.966-.542-8.678s4.881 0 7.05-.542c2.17-.543 14.102-5.966 16.814-5.966h17.356l-1.084-6.509-7.594-3.254-7.05-3.254-4.34-5.424 3.255-12.475-.543-9.22-3.796-8.136-3.255-8.678-3.796-5.423-5.966-3.797-2.17-.542-1.627-4.882.543-4.881zM290.17 61.83l2.169 8.678 6.508 5.967 6.509 4.88h9.22l4.882 7.052 1.627 8.678 4.339 4.881 6.508-3.254 1.627-5.966V84.61s-4.881-5.424-7.05-7.05c-2.17-1.628-5.967-9.221-5.967-9.221l-2.17-6.508s-11.931-2.17-15.728-1.628c-3.797.543-15.729-.542-15.729-.542zM259.254 111.729l23.865 1.627s18.44 0 22.237-.542c3.797-.543 17.356-4.882 17.356-4.882l26.034-4.339 14.101-3.254 15.187-3.797L401.898 96l13.56 4.339v7.05l-8.678 5.425s-13.56 1.627-16.272 1.084c-2.711-.542-14.101-2.17-17.898-3.796-3.796-1.627-32.542 4.339-32.542 4.339s1.085-1.085-9.22 0c-10.306 1.084-24.95 8.135-24.95 8.135L290.17 128l-9.22 5.424-12.474 3.796-2.712-8.135-4.34-6.509-3.254-5.966zM350.915 128l14.644 13.017s.543 11.932-.542 14.644l-5.424 13.56s-8.678 11.932-10.847 13.016c-2.17 1.085-11.932 0-11.932 0l1.627-8.678 10.847-18.44.543-9.763-1.085-13.56z"/><path d="M297.22 149.153l20.068 14.644 5.966 10.847 1.627 12.475.543 5.423 18.983-3.796 10.847-5.966 14.102.542 12.475 4.339 5.966 7.593s-7.594 6.509-11.933 7.051c-4.339.542-30.372 1.085-30.372 1.085h-13.017l.542 13.017.542 10.847s4.34 1.085 6.509 1.085c2.17 0 11.39-.542 11.39-.542l11.932 3.796.542 6.509-14.101 6.508h-16.814l-1.627 9.22 1.085 14.102h8.678s11.39-3.796 13.559-4.339c2.17-.542 8.678-2.712 11.932-3.254 3.254-.542 16.271-2.17 16.271-2.17h8.678l10.305 3.255 10.848 3.254 11.39 7.05 9.762 5.967-8.678 8.136s-8.678.542-15.186.542c-6.509 0-20.61-5.966-24.95-7.051-4.338-1.085-14.1-1.085-17.355-1.627-3.254-.542-15.187-2.712-15.187-2.712l-18.44 5.424-1.627 8.678 3.254 22.237v24.95l2.17 40.135.542 40.678-.543 41.22-6.508 9.22-3.254-4.88-5.424-8.679-4.34-7.593v-11.39l-2.711-11.932v-8.136l5.966-1.084 1.627-15.73v-16.813c0-2.17.543-24.949.543-24.949l2.17-21.695s-1.086-11.932-1.086-14.102-.542-24.949-.542-24.949l-1.085-13.56-8.678-2.169s-16.27 3.797-18.44 5.424c-2.17 1.627-11.39 6.509-13.56 7.051-2.17.542-13.017 5.966-13.017 5.966l-8.135 1.085-8.136-5.424-5.424-3.254-1.627-7.051 9.763-.542 29.83-7.051 20.61-3.797 15.73-1.085 1.627-11.39v-12.474l-13.017 1.085-11.933 1.627H288l-1.627-6.509 8.135-2.17 14.102-5.423 13.017-2.712 1.085-13.017-3.254-7.593-3.797-1.627-17.356.542-4.339 4.882-8.135-1.627-2.712-9.22 10.305-3.255 21.152-4.881-8.135-8.678-2.17-9.22-2.17-15.187z"/></svg>