<svg xmlns="http://www.w3.org/2000/svg" width="512" height="512"><path d="M48.571 166.286l37.858 10 20 16.428 6.428 12.143L115.714 217 100 216.286l-12.143-2.143-12.857.714H63.571L56.43 203.43l-2.143-17.143-5-12.857zM32.857 327l19.286 3.571 20.714-12.857L90 298.43l20-17.858 15.714-15.714 2.143.714-3.571 22.858-9.286 15-10 15-9.286 9.285-3.571 15L86.429 357s-.715 15-5 20C77.143 382 65 386.286 65 386.286l-10.714-3.572-6.429-17.857-7.143-11.428-8.571-8.572-3.572-7.143.715-5.714zM134.286 49.857l-2.143 11.429 12.143 9.285 6.428 27.143 2.143 21.429v17.143l1.429 24.285-3.572 17.858L148.571 222l-2.857 65.714-1.428 37.143L142.857 352l-5 33.571-1.428 12.858-8.572-7.143-1.428 14.285 7.142 8.572 2.143 21.428.715 22.858 2.857 17.142L155 453.43l6.429-18.572-2.143-25.714-2.143-20-2.857-68.572-1.429-41.428 2.857-25 2.857-22.857 2.858-26.429 2.857-36.428 3.571-20.715 5-27.857 7.857-21.428 2.143-10L177.143 72l-6.429-10.714L153.571 52l-11.428-1.429zM296.429 31.286l12.857 29.285L310.714 77 295 104.143 278.571 117 275 112l-10.714 17.857 5.714 10 19.286-13.571L320 102.714l13.571-20L340 63.43l-8.571-20.715-20-5.714-12.143-3.571zM290.714 150.571l15 4.286 11.429-5.714L320 162.714l.714 13.572 2.857 13.571-15.714-6.428-12.857-10-5.714-12.143zM222.143 164.857L239.286 187l13.571 8.571L261.43 207l2.857 14.286-8.572 5-15.714-10-11.429-10.715L220 192.714 217.143 182v-8.571z"/><path d="M355.714 99.857L370 119.143l5 18.571-7.857 17.143-6.429 13.572L344.286 187 330 204.143l-10.714 3.571 8.571 9.286 6.429 8.571-.715 6.429L295 234.857l-35.714 7.857-32.143 7.857L196.429 262 170 274.143l3.571 9.286L190 292l2.857 8.571s13.572-7.142 17.857-11.428c4.286-4.286 28.572-17.857 28.572-17.857s40-13.572 42.857-13.572c2.857 0 26.428-9.285 26.428-9.285L340 244.143l10 2.143-2.857 31.428 4.286 50v37.143s2.142 27.143 2.142 30c0 2.857-7.142 23.572-8.571 26.429-1.429 2.857-17.857 11.428-20.714 13.571-2.857 2.143-22.857 2.857-22.857 2.857h-7.143l2.857 7.857 10.714 7.143L331.43 477l15 6.429L365 457.714l10-22.857s-4.286-37.143-5-40C369.286 392 365.714 357 365.714 357l-3.571-59.286.714-54.285L365 237l32.857-5.714 35 .714 31.429 3.571 22.143 4.286h10.714l-3.572-10.714-16.428-7.857s-25-3.572-29.286-2.857c-4.286.714-45.714.714-45.714.714l-28.572 8.571-12.857-15L350 210.571l-11.429-5.714 17.143-12.143 12.857-20 24.286-12.857 10.714-15-6.428-20.714-8.572-13.572L370 101.286z"/><path d="M272.857 281.286l10.714 15 12.858 7.143 2.142 20.714-2.142 19.286-8.572 7.857-15.714-23.572L265.714 312v-14.286l3.572-17.143z"/></svg>