<svg xmlns="http://www.w3.org/2000/svg" height="512" width="512"><path d="M275.364 96.27l-25.312-12.273-14.573 8.437 16.874 16.875 6.904 12.272-29.915 6.136-38.351 7.67-36.818 7.671-17.641.767-4.603 6.136 4.603 9.205 14.573 8.437 18.409-10.738 22.244-9.205 36.05-9.971 32.983-6.136 25.312-.767 28.38-.767h26.079l40.652 3.068 26.847 10.738h18.408s8.438-6.903 5.37-7.67c-3.069-.767-11.506-9.205-16.108-13.807s-6.903-7.67-6.903-7.67l-5.37-9.972-26.846 6.137s-29.914.767-35.283.767c-5.37 0-55.226 4.602-55.226 4.602l-7.67-15.34z"/><path d="M169.514 172.972l4.602 27.613-2.301 23.011.767 23.011-9.204 36.05-9.972 29.915-16.107 41.42-15.341 37.584-16.875 29.914-19.943 25.312-28.38 31.449-8.437 13.806 6.136.767 17.642-13.04 28.38-20.71 26.846-39.118 23.011-49.857 12.273-32.982 10.738-40.653 1.534-13.04 27.613-17.641 8.438-16.108s20.71-16.107 23.01-19.942c2.302-3.836 21.477-22.244 21.477-22.244l16.875-7.67-5.37-21.478-14.573-16.107-8.437-3.835v19.942l-13.04 29.148-18.408 24.545-16.108 21.477-17.642 10.738 10.739-35.283v-13.04l-6.137-15.34.767-13.807 9.205-16.875-17.642-6.903z"/><path d="M222.439 264.249l-3.835 55.226-3.835 51.391-3.068 20.71 7.67 26.846 7.67 4.602 6.136-15.34.767-22.244 4.603-42.954v-63.664zM339.028 167.603l2.3 20.71 9.972 14.573 4.602 19.176-13.04 9.205-23.01 3.835-23.011 9.204-26.079 3.835-4.602 9.972 13.04 15.34 14.573-3.835s9.971-6.136 13.806-8.437c3.836-2.301 25.312-13.807 25.312-13.807l24.545-3.835v24.545l2.302 143.435-23.778-8.437v7.67l8.437 9.971 3.068 13.04 7.67 22.244 6.137 12.272 9.971-13.04 3.835-16.107 5.37-23.778-.768-19.176-3.835-65.964-3.835-29.915.767-39.118-3.835-24.545 44.488-11.506 27.613.767 17.642.767v-13.04l-23.011-7.67-16.875-1.533-10.738 6.136-17.642 6.136-16.108 3.068 6.903-10.738-9.204-10.739 2.301-10.738-6.903-11.506-22.244-9.204z"/><path d="M276.898 288.794l19.176 5.37 16.108 2.3 14.573 11.506 6.904 12.272 5.369 13.04-.767 8.437-17.642-3.068-16.875-14.574-11.505-9.971-14.574-14.574z"/><path d="M619.761 161.467l6.903.767" fill="none" stroke="#000"/></svg>