<svg xmlns="http://www.w3.org/2000/svg" width="512" height="512"><path d="M138.833 41.81c-9.205 7.67-11.506-26.08-9.205 7.67s0 5.37 0 5.37M554.563 70.19c-36.05 0 8.438 3.068 0 0z"/><path d="M130.395 66.355c0 4.602 15.34 25.312 15.34 25.312l3.069 26.079 1.534 22.244 13.04 7.67-.767 30.681-.767 32.216.767 37.584-1.534 29.147-1.535 55.994-2.3 36.05 3.068 55.993-1.535 50.625 3.836 16.874 12.272.767 8.437-10.738 2.302-19.176.767-37.584 3.835-170.281.767-79.005 6.136-42.953 5.37-29.148 5.368-26.079-1.534-25.312-16.874-18.408-27.613-6.904-16.875 6.137-6.136 7.67-6.137 30.681 9.205 14.574 8.437 11.505M258.49 90.9l1.534 5.37"/><path d="M78.237 185.245l44.488-19.943 30.681-9.971 41.42-19.176 33.75 3.068 9.97 22.244s-.766 13.806-4.602 14.573c-3.835.767-29.147 6.137-29.147 6.137l-24.545 16.107-31.448 16.108-26.846 13.807-25.312-1.535-16.108-9.971-7.67-20.71zM157.241 237.403l-20.71 28.38-26.079 20.71-31.448 40.653s-22.244 21.476-25.312 23.01c-3.068 1.534-20.71 9.972-20.71 9.972l-9.971 16.875 6.136 20.71 19.176 2.3 16.875-8.437 17.641-20.71 22.244-27.613 29.914-31.448 28.38-30.681 21.477-26.08zM191.758 214.392c-3.068 0 25.312 11.505 25.312 11.505l19.943 16.875 9.204 28.38s-4.602 16.875-7.67 17.642c-3.068.767-24.545-6.903-24.545-6.903l-14.574-15.341-6.903-13.807-6.136-15.34zM347.465 37.208l-1.534 29.914 9.971 23.778 8.438 16.108-3.068 32.982.767 32.215-34.517 15.34-24.545-2.3-16.107 5.369s2.3 15.34 0 19.943c-2.301 4.602 10.738 23.01 10.738 23.01l16.108 5.37 19.175.767 18.41-11.505 11.505-4.603 1.534 32.216-2.301 46.021s-29.148 11.506-34.517 11.506c-5.369 0-32.982 3.835-32.982 3.835s-29.147 5.37-32.215 9.972c-3.068 4.602-7.67 24.544-7.67 24.544l10.738 22.244h25.312l24.545-16.107 28.38-8.438 43.72-1.534 45.256-2.3 49.09 2.3 8.437-11.505-6.136-22.244-19.943-18.409s-16.108-6.136-23.778-4.602l-30.681 6.136-14.574.767-6.136-19.942 3.835-36.818 3.068-26.079 6.136-11.505 31.449-13.807 18.408-16.108 3.068-26.079-19.942-12.272s-15.341 4.602-19.176 6.136c-3.835 1.534-13.04 14.574-16.875 16.875-3.835 2.3-2.3-40.653-2.3-40.653l.766-41.42-12.272-23.778-19.176-18.408-16.108-5.37-2.3 18.41z"/></svg>