<svg xmlns="http://www.w3.org/2000/svg" width="512" height="512"><path d="M153.406 67.889l1.534 17.642 12.273 20.71 3.068 10.738-4.602 23.01-3.835 30.682-3.069 30.681-84.373 26.08-28.38 11.505v6.136l6.136 9.972L69.8 265.783l15.34 2.301s10.739-9.204 11.506-12.272c.767-3.069 23.778-15.341 23.778-15.341l26.846-18.409 9.204-2.3.767 15.34-7.67 19.176-11.505 27.613-20.71 30.68-14.574 16.109-13.04 6.136-3.067 13.04-3.069 19.175 3.836 13.807 17.641-10.739 24.545-13.806s13.04-14.574 14.574-17.642c1.534-3.068 6.136 16.108 6.136 16.108l-3.835 16.874-3.835 6.904-4.602-3.836-3.836 5.37 4.603 14.573-.767 19.943.767 30.681 2.3 14.574 6.137 9.204 13.04-12.272 4.602-17.642-3.068-27.613-3.069-24.545.767-19.943-3.068-18.409-2.3-13.04 2.3-10.738 11.506-10.738 7.67-10.738v-6.904l-13.04 3.068h-3.068l-.767-13.806 3.836-22.244.767-20.71 6.136-26.846 3.068-6.903 23.01-4.602 22.245-3.836 13.806-8.437.767-9.204-14.573-8.438-14.574-.767-9.204 9.972-17.642 8.437-5.37 1.534-1.533-13.806 7.67-25.312 6.136-20.71 5.37-13.807 2.3-14.573-3.067-13.807-3.069-9.204-3.835-9.205-14.573-4.602zM149.571 272.686l-3.068 18.41zM271.529 151.495l6.903 16.108 14.574 7.67 16.875-9.204 22.243-12.273 27.614-7.67 18.408-5.37 14.574 2.302-2.301 51.391 2.3 146.503v25.312l-12.272-3.835-19.942-12.273-39.886 5.37-34.516 11.505h-5.37l-3.835-20.71 1.534-32.982 1.534-27.613.767-46.79-2.3-16.874-14.574-25.312-11.506-11.505-6.136 23.778 10.738 19.943s.767 36.05 3.069 40.652c2.3 4.602-2.302 88.976-2.302 88.976l3.836 13.806-29.148 5.37 9.972 13.04 13.806 5.368 11.506-8.437 18.409-6.903 32.982-9.205s17.642-4.602 21.477-4.602c3.835 0 19.943 1.534 19.943 1.534h9.971s3.835 0 6.903-.767c3.068-.767 6.137 16.108 6.137 16.108l4.602 43.72 15.34 13.04 5.37-21.477 4.602-21.477-6.136-36.817-1.535-25.312.767-24.545v-14.574l-6.136-23.778v-19.175l1.534-23.778 4.602-28.38 2.302-26.08 3.068-13.806 6.903-9.205-3.835-11.505-16.108-18.409-12.272-7.67-16.108 2.301-5.37 11.505-36.05 3.836-29.914 9.204z"/><path d="M297.608 218.994l33.75-13.806 25.311 13.04-13.04 15.34s-11.505 7.67-14.573 8.437c-3.068.767-9.971 7.67-13.806 5.37-3.835-2.302-13.807-16.108-13.807-16.108zM294.54 300.3l35.283-15.341 19.943 6.136 6.903 6.136s-9.97 6.904-14.573 7.67c-4.602.768-25.312 6.137-25.312 6.137l-21.477 1.534-5.37-9.971z"/></svg>