<svg xmlns="http://www.w3.org/2000/svg" width="512" height="512"><path d="M182.553 18.032l15.341-3.835 19.176-3.068 18.409 4.602 10.738 14.573 1.534 16.875v12.273l-10.738 14.573-9.972-16.874-7.67-19.943-16.108-8.438-7.67-2.3z"/><path d="M85.14 93.201l20.71 3.068 50.624-8.437 38.352-8.438 20.71-4.602 58.294-16.874h30.681l42.187-5.37 21.477-7.67h12.272l23.011 11.506 1.534 10.738-7.67 8.437s-20.71-9.204-24.545-9.971c-3.835-.767-17.642-2.301-17.642-2.301h-23.778L208.632 83.23l-26.079 9.204-27.613 7.67-22.244 10.739-24.545 9.971-8.437 2.301-8.437-12.272-3.835-8.438zM65.965 231.267l11.505 17.641 9.205 29.148-7.67 23.01-4.603 23.011 7.67 17.642 14.574.767 9.204-6.136-3.835-17.642 3.835-30.681 3.068-24.545-11.505-20.71-15.34-13.806-8.438-3.069z"/><path d="M176.417 110.843l20.71.767s9.204 12.272 9.204 15.34c0 3.069.767 17.642.767 20.71 0 3.068-5.369 29.147-5.369 29.147l.767 22.244-.767 19.943-2.3 6.136-18.41 2.301-3.835-16.107 5.37-15.34 6.903-23.779 2.3-24.545-7.67-23.778zM265.393 75.56l-3.835 41.419-1.534 33.75 1.534 32.982v19.175l-1.534 8.438 9.97-3.068s2.302-16.108 2.302-20.71v-32.982c0-3.069 4.602-30.682 4.602-30.682l11.506-19.176 1.534-15.34-10.739-10.739-8.437-.767zM212.468 128.484l17.641-5.369 12.273 1.534-2.301 13.04-16.875 3.835zM208.632 181.41l26.08-6.137 11.505 1.534 1.534 9.205-18.409 6.136h-21.477z"/><path d="M118.123 235.869l286.87-44.488 13.806-11.505 13.04.767 19.942 9.971 15.34 11.505-9.203 23.778-8.438 26.846-11.505 15.341-19.176-2.301-6.903-21.477-3.835-15.34h12.272l7.67-16.108s-6.903-9.204-13.04-9.204c-6.135 0-46.788 3.068-49.856 4.602-3.068 1.534-20.71-2.301-25.312-.767-4.602 1.534-50.624 11.505-50.624 11.505l-9.205-.767-33.749 9.204h-22.244c-3.068 0-16.875 3.069-16.875 3.069l-11.505 7.67-18.409-.767-14.573 3.835s-7.67 4.602-12.273 6.903c-4.602 2.301-16.875 6.137-16.875 6.137l-8.437-10.739z"/><path d="M184.854 259.647l5.37 23.01v19.944l2.3 16.874 17.643 9.972 12.272-9.205s31.448-7.67 34.516-9.204c3.069-1.534 41.42-12.273 41.42-12.273l4.602-23.778 17.642-13.806-9.204-18.409-12.273-14.573-12.272 2.3-6.137 13.807-9.204-2.3-27.613 6.135-18.409 6.137 1.534 10.738 18.409 6.136 14.574-6.136 11.505-3.835 15.34 5.37-5.369 13.039-4.602 18.408-42.954 4.603-16.107 3.835-2.301-21.477-3.068-13.04-16.875-11.505z"/><path d="M260.024 211.324v35.283l11.505-4.602-1.534-33.75zM223.206 332.515l18.409-5.37 18.409 13.04 8.437 3.068 32.982-9.204 29.914-6.903 13.807-8.438 22.244.767 18.409 7.67s5.369 7.67 2.3 10.739c-3.067 3.068-12.272 3.068-18.408 3.068-6.136 0-48.323-3.835-48.323-3.835l-18.409 6.136s-19.943 6.136-23.778 6.903c-3.835.767-16.107 3.836-16.107 3.836l-4.603 16.107s-4.602 16.875-4.602 21.477v14.574c0 3.835 2.301 35.283 2.301 35.283s3.836 19.943 3.069 24.545c-.768 4.602-.768 15.34-.768 18.409 0 3.068-2.3 13.806-5.369 16.108-3.068 2.3-9.971-2.302-9.971-2.302l-16.108-9.971-9.204-19.943-5.37-23.778v-7.67l24.546 8.437 7.67-.767-3.068-23.778v-23.01l-2.301-37.585s-27.613.767-32.216 2.3c-4.602 1.535-23.01 9.205-26.846 9.972-3.835.767-18.408 4.603-22.244 6.904-3.835 2.3-18.408 7.67-21.476 9.971-3.069 2.301-13.04 6.903-13.04 6.903l-9.204 3.068-9.972-7.67-7.67-13.806 5.37-6.904 11.505 3.068 24.545-1.534 21.476-6.903 36.05-6.903 28.381-6.903 17.642-3.836-9.205-7.67-7.67-1.534z"/><path d="M155.707 400.78l-10.738 14.574v9.204l.767 13.04 5.37 5.37 6.135 8.437s9.205-3.836 9.205-6.904 4.602-17.641 4.602-17.641l-9.204-13.04-5.37-7.67zM325.988 372.4l28.38 15.341 13.807 4.602 3.068 10.739 3.068 16.874-.767 16.875-12.272 2.301s-4.603-12.272-6.904-15.34c-2.3-3.069-9.204-13.04-9.204-13.04l-4.602-7.67-6.903-9.205-.768-7.67 3.069-3.835z"/></svg>