<svg xmlns="http://www.w3.org/2000/svg" width="512" height="512"><path d="M143.435 66.355l15.34 20.71-12.272 28.38-20.71 25.312-20.71 23.778-9.971 14.574-7.67 16.874 3.835 11.506 14.573-6.904 16.875-13.04 24.545-11.505 15.34-2.3-9.97 19.175-19.177 24.545-14.573 20.71-1.534 9.204-16.108 6.904-7.67 9.971 6.903 11.505 15.34-3.835 21.478-12.272 48.323-26.846 10.738 24.545 17.642-.767 9.204-19.176-9.204-24.545-11.506-16.108-16.874-5.369-5.37 10.738 1.534 21.477-17.641 11.506-26.846 6.136 13.806-19.176 12.273-23.01 37.584-46.023 15.34-10.738h16.108l6.137-10.738-9.205-9.972s-11.505-6.136-16.107-6.136c-4.603 0-17.642.767-19.176 5.37-1.534 4.601-11.506 25.311-11.506 25.311l-29.147 10.739-31.448 7.67v-6.136l22.244-23.011 21.477-28.38 10.738-18.41-6.903-13.039-13.04-13.04zM66.732 321.01l-10.739 23.777 4.602 21.477L67.5 383.14l11.505-5.37 3.068-16.874-4.602-21.477zM131.162 320.242v30.681l9.972 19.943 13.806-2.3s1.534-13.04 1.534-16.108c0-3.069-8.437-20.71-8.437-20.71l-10.738-3.068zM194.059 301.066l9.971 43.721 6.904 21.477 19.175-.767-.767-16.875.767-16.874-18.408-22.244-13.04-6.136zM279.2 123.115l6.136 5.37 20.71-4.603s17.641-7.67 20.71-9.204c3.067-1.534 19.942-9.972 23.01-12.273 3.068-2.3 21.477-14.573 21.477-14.573l15.34-7.67 13.04 2.3 6.136 9.205 3.836 13.04-16.108 20.71-17.642 11.505L360.505 163l-18.41 26.846-13.806 12.272-1.534 10.739 15.34-.767 19.177 10.738 9.971 12.273-2.301 15.34-.767 13.807-2.301 14.574 20.71-10.739h5.369c3.068 0 21.477.767 21.477.767l8.437 5.37 1.534 14.573s-12.272 9.204-16.875 9.204c-4.602 0-23.777 3.835-28.38 5.37l-13.806 4.602-4.602 7.67-.767 21.477v14.574l-1.535 16.107 16.108-1.534 30.681-4.602 11.506-1.534 18.409 9.204 18.408 7.67 9.205 13.807s-2.301 10.739-5.37 11.506c-3.068.767-27.613-5.37-27.613-5.37l-30.68-9.204-19.944-2.301-16.874-.767H351.3v7.67l-9.204 2.301-4.602-5.369-24.545 6.136-18.41 6.137-15.34 9.97-15.34-3.834-3.068-13.807v-8.437l19.175-5.37 38.352-6.136 20.71-2.3 3.068-21.478 2.301-25.312-1.534-6.903-16.875 6.136-9.204 11.506-13.04 4.602-12.272-13.807-13.807-10.738v-12.272h14.574l21.477-2.302 19.943-6.903 12.272-3.068.767-19.176v-17.641l1.534-11.506s-9.204-3.835-12.272-3.835c-3.069 0-12.273-7.67-12.273-7.67l-13.806-7.67s-6.904 7.67-11.506 13.039c-4.602 5.37-12.272 12.272-16.875 14.573-4.602 2.302-20.71 16.875-27.613 19.943-6.903 3.068-21.477 8.438-21.477 8.438l-1.534-16.108s14.574-8.437 21.477-12.273c6.904-3.835 42.187-32.982 42.187-32.982l35.283-46.022 15.341-29.147 9.971-16.108 3.069-9.971s-12.273-3.068-16.108.767c-3.835 3.835-3.835 13.04-12.273 18.409-8.437 5.369-12.272 10.738-16.107 11.505-3.835.767-24.545 2.301-24.545 2.301l-7.67-13.04-5.37-8.437z"/><path d="M393.487 188.313l27.613 6.903 11.506.767 11.505 17.642 8.437 9.971 3.068 6.137-.767 17.641-21.476-9.204-9.972-10.739-17.642-9.204-11.505-9.971-.767-11.506z"/></svg>