<svg xmlns="http://www.w3.org/2000/svg" width="512" height="512"><path d="M119.657 90.133l29.914-2.301 12.273-2.301 32.215-1.534 9.971-7.67 6.904-6.137 9.204 6.136 5.37 16.108-7.671 10.738-6.903 13.807-5.37 12.272-5.369 14.574-.767 11.506-5.37 19.175-.766 16.108-9.972 1.534-6.136-9.204v-9.205l3.835-18.408 3.068-26.08 9.205-24.545V93.968h-14.574s-16.874 5.37-21.477 7.67c-4.602 2.301-21.476 3.836-21.476 3.836l-11.506-2.302-5.37-4.602z"/><path d="M36.817 174.506l68.266-22.244 66.732-16.874 46.789-9.972 25.312-3.835 20.71 13.04s2.3 9.204-1.534 9.971c-3.835.767-21.477 2.301-26.846 2.301-5.37 0-36.05-3.068-36.05-3.068l-42.955 12.273-16.874 3.835-32.983 12.272-19.175 7.67-21.477 9.972-10.739 3.068H39.886l-4.603-5.37-.767-6.902zM43.72 232.034l49.09-15.341 50.625-16.875 27.613-4.602 32.215-7.67 14.574 4.602 8.437 6.136 2.301 6.137s-10.738 3.835-13.806 3.835c-3.068 0-13.807-1.534-20.71-1.534-6.903 0-22.244 0-25.312.767-3.068.767-36.818 6.903-36.818 6.903l-14.573 4.602-26.846 9.972-19.176 6.903-20.71 5.369-11.505 3.068-2.302-6.136z"/><path d="M112.754 117.746l18.408 6.136 13.04 6.137-10.739 39.885-7.67 21.477-17.642 38.352-6.136 18.408-10.738 26.846-12.273 30.682-16.874 20.71s-15.341 20.71-17.642 23.777c-2.301 3.069-11.506 17.642-14.574 19.176-3.068 1.534-13.806 13.807-13.806 13.807l-7.67 4.602-5.37-16.875 8.437-6.903 23.011-23.778 26.08-30.681 13.806-26.846 13.807-31.449 5.369-15.34 11.505-42.187 4.602-13.04 4.603-39.118-3.068-7.67-6.904-2.301-.767-9.972zM105.083 269.618l6.904 23.011 5.369 24.545 6.903 23.011-.767 14.574v5.369l13.807 3.835 4.602-12.273-8.438-38.351v-19.176l-2.3-9.971-4.603-19.176h-18.409z"/><path d="M126.56 265.016l33.75-9.971 21.476-.767 13.04-3.069 2.301-9.204 5.37-3.068 16.107 5.37 8.437 6.135 1.534 15.341-6.136 11.505-3.835 6.904-6.136 26.846-2.301 10.738-.768 11.506-9.97 6.903-13.04-3.835 1.534-19.943 7.67-16.875v-21.476l-1.534-6.137-22.244 1.534-19.176 3.068-10.738 8.438-8.438 9.204z"/><path d="M136.532 334.049l42.953-11.506 41.42-2.3 1.534 11.505-3.068 7.67-9.972-6.136-67.498 18.409zM300.676 56.384l23.778 6.903s5.37 9.204 5.37 12.272c0 3.068-4.603 16.108-5.37 19.943-.767 3.835-6.903 19.176-10.738 21.477-3.835 2.301-16.875 3.835-16.875 3.835l-4.602-7.67 5.37-12.273 5.368-18.408.767-13.04zM418.799 51.014l4.602 15.34-3.068 10.74 24.545 3.067 16.108 3.836-7.67-18.41-7.67-9.97-20.71-6.904-4.603 6.136zM289.17 172.205l47.557-6.903v-7.67l16.874 1.534 29.148-6.137 18.408-9.97 19.943 1.533 10.738 6.903-3.835 9.972s-28.38 3.835-31.448 3.835c-3.068 0-16.108 3.835-16.108 3.835l-13.806 21.477-2.301 12.272 7.67 6.904 14.574-5.37 10.738-3.835 9.972 3.836-.768 11.505s0 4.602-5.369 6.136c-5.369 1.534-18.408 0-22.244 2.301-3.835 2.301-14.573 3.068-14.573 3.068l-3.068 9.972 1.534 24.545v14.573l18.408-1.534 36.05-5.369 25.313-.767 18.409-9.971s7.67 2.3 11.505 4.602c3.835 2.301 14.574 10.738 14.574 10.738l13.04 6.137 4.601 11.505s-8.437 1.534-14.573 1.534c-6.136 0-39.119-9.204-39.119-9.204l-27.613-6.136-45.255 8.437h-14.573s-2.301 11.505-1.534 14.573c.767 3.069 4.602 46.022 4.602 46.022l1.534 49.857-2.301 13.807s0 10.738.767 13.806c.767 3.069 4.602 25.312 4.602 25.312l2.301 20.71 1.534 16.875-13.04 11.505-5.369-10.738-.767-9.204-4.602-9.972-5.369-18.408 2.301-9.972 6.903-9.204V408.45l2.301-34.517-2.3-26.846.766-19.175v-28.381l-6.136-9.971s-16.875-1.534-20.71 2.301c-3.835 3.835-20.71 12.273-20.71 12.273l-21.476 5.369-17.642 8.437h-9.971l-9.205-10.738-5.37-4.602 14.575-6.137s17.641-3.835 21.476-3.835c3.836 0 27.614-5.37 33.75-6.136 6.136-.767 36.05-6.903 36.05-6.903l3.835-36.818-.767-11.505-16.874 3.835-24.545 8.437-18.41 7.67-9.203-2.3-4.603-10.74 1.534-9.97 14.574-1.535 24.545-6.903 19.176-2.3 14.573-6.137-3.068-23.778s1.534-6.903-6.136-6.903-21.477.767-25.312 2.3c-3.835 1.535-10.738 3.836-10.738 3.836h-13.807l-3.835-12.273z"/></svg>