<svg xmlns="http://www.w3.org/2000/svg" width="512" height="512"><path d="M126.56 85.53l3.835 17.642-13.04 22.244-20.71 22.244s-15.34 19.176-17.64 23.011c-2.302 3.835-15.341 15.34-15.341 15.34l-16.108 10.74L28.38 209.79 5.37 220.528l-3.836 14.574s-3.835 12.272 0 11.505c3.835-.767 16.108-7.67 16.108-7.67l17.641-16.875s36.05-24.545 39.119-27.613c3.068-3.068 23.778-25.312 23.778-25.312l17.642-23.778 19.175-19.176 13.04-13.04-3.835-17.64-7.67-11.506-12.273-3.068zM172.582 100.871l9.971 6.137 18.41 4.602 27.612 9.204 10.739 13.807s5.369 13.806 1.534 15.34c-3.835 1.534-11.506 4.603-24.545.767-13.04-3.835-16.875-2.3-21.477-6.903-4.602-4.602-5.37-6.903-9.204-10.738-3.836-3.836-13.04-11.506-13.04-11.506l-7.67-15.34zM98.18 214.392l44.488-11.506 34.516-4.602 9.205 12.273-23.011 9.204s-14.574 3.835-17.642 5.37c-3.068 1.533-9.971 6.903-9.971 6.903l-1.535 7.67 9.205 13.04 6.903 9.204 16.875-7.67 12.272-4.603 23.011 4.603 9.205 9.971-9.972 9.204-23.01-4.602-19.177 3.835-9.97 1.534.766 29.915s0 42.186.767 45.254c.767 3.069 0 19.943 0 19.943s9.972 0 10.739-3.835c.767-3.835 9.204-19.943 11.505-23.778 2.301-3.835 11.505-21.477 11.505-21.477l5.37-13.04 7.67 20.71s8.437 3.836 8.437 6.904-7.67 17.642-7.67 17.642l-17.642 13.806-23.01 18.409 9.204 4.602 26.846 1.534s19.943-5.37 23.01-5.37c3.069 0 23.779 3.069 23.779 3.069l18.409 9.204 5.369 6.137-11.506 7.67-20.71-3.835-22.243-1.534-36.05-6.904-28.381 4.603-19.176.767s-17.642 6.136-22.244 7.67c-4.602 1.534-25.312 10.738-25.312 10.738l-19.943 8.438-15.34 8.437-15.34 9.971-13.04 1.535L3.835 444.5l-.767-11.505 22.244-7.67 22.244-3.836 16.108-10.738 23.778-3.068-7.67-24.545 4.601-18.409v-13.04l16.108 10.739 6.903 14.574 6.904 13.04 4.602 11.505 14.573-4.603v-15.34l-3.068-19.176 3.068-21.477.767-17.642.767-13.806-.767-11.506-13.04-8.437-13.039 4.602-18.408 18.409s-11.506 5.37-14.574 5.37c-3.068 0-13.807-6.137-13.807-6.137L49.857 297.23s13.04-3.068 16.108-3.835c3.068-.767 29.147-9.971 29.147-9.971l26.846-8.438 2.301-13.04-5.37-16.107-12.272-9.204-5.369-7.67zM324.454 77.86l23.011-3.835 20.71 6.136s0 8.438.767 13.807c.767 5.37.767 19.943.767 19.943l27.613-15.34 13.04-6.904s9.971 3.068 13.04 3.068c3.067 0 26.845 2.301 26.845 2.301l11.506 12.273s-23.011 10.738-34.517 10.738c-11.505 0-32.982 0-36.817.767-3.835.767-16.875 3.835-23.011 6.903-6.136 3.069-18.409 4.603-24.545 6.904-6.136 2.3-19.943 6.903-26.08 10.738-6.135 3.835-16.107 14.574-16.107 14.574h-9.204l-16.108-9.972-7.67-9.971 20.71-4.602s9.204 2.3 13.04 1.534c3.834-.767 23.01-10.739 23.01-10.739L349 119.28l.767-9.971-17.642-12.273-4.602-8.437z"/><path d="M301.443 177.574l5.37 23.011s-2.302 5.37-7.67 7.67c-5.37 2.302-44.489 11.506-48.324 13.807-3.835 2.301-38.351 12.273-38.351 12.273l-2.301 7.67 22.243 3.068 31.449-8.437s23.778-9.205 30.68-10.739c6.904-1.534 31.45-11.505 34.517-11.505 3.068 0 30.682-8.437 30.682-8.437l28.38-4.603 39.118-3.068 19.943-3.068h42.954l16.108.767 3.835-7.67-.767-12.273s-11.506-1.534-15.341-.767c-3.835.767-23.778 3.836-28.38 4.603-4.602.767-29.914 3.835-29.914 3.835l-36.818 5.369-14.573 1.534 3.835-14.574 9.204-14.573-3.068-9.205-15.34-8.437-9.205-6.136v15.34l-8.437 19.176-9.205 14.574-2.3 12.272-24.546-.767-3.068-16.107-11.505-5.37z"/><path d="M327.522 216.693l12.273 24.545-32.216 9.204 6.137 11.506 20.71-3.068 12.272-3.835 3.068 13.806-2.3 7.67-16.876 10.739v6.903l21.477 2.301v18.409l-19.176 6.903-23.777 10.739-2.302-24.545-.767-16.108-8.437-19.943-14.574-7.67-5.369-1.534-3.068 8.437 12.273 10.739s5.369 12.272 5.369 16.107c0 3.835 5.37 21.477 5.37 21.477l5.368 14.574-13.806 1.534-2.301 11.505 2.3 15.34 16.875-4.601 14.574-9.972 24.545-8.437h7.67v23.778l-6.136 15.34-31.448 7.67-5.37 9.972s9.205 3.068 14.574 3.068c5.37 0 21.477-3.835 21.477-3.835l9.204 4.602-3.835 14.574s-23.778 5.37-28.38 7.67c-4.602 2.301-29.914 9.205-29.914 9.205l-21.477 3.835 1.534 6.136 7.67 11.506 23.778-5.37 32.983-10.738 17.641-8.437 30.682-6.904 27.613-3.068 26.079 5.37 24.545 4.602h14.573l1.534-6.137-9.97-4.602-11.506-6.136-16.875-1.534s-24.545 5.37-27.613 5.37c-3.068 0-13.807-4.603-13.807-4.603l-36.817 4.602 3.068-26.846 28.38-7.67 25.312-7.67-6.903-9.972h-27.613l-20.71 4.602-.767-13.04 1.534-11.505-2.301-8.437 25.312-9.205 23.778-5.369 13.806-3.835-3.835-13.04-26.079 3.069-32.215 10.738-6.136-26.079 19.942-6.903 9.972-7.67-26.846-3.069v-23.778l12.272-9.971 19.176-8.437h16.875s6.903 7.67 6.136 12.272c-.767 4.602-1.534 13.807-3.068 16.875-1.534 3.068-3.068 16.107-3.068 16.107l-2.301 12.273.767 9.971 8.437 1.534 10.738-11.505 7.67-21.477 4.603-21.477-.767-13.04-14.574-7.67-19.943-1.534-18.408.767-13.807 9.205-16.875.767-6.903-10.739-6.136-9.971z"/></svg>