<svg xmlns="http://www.w3.org/2000/svg" width="512" height="512"><path d="M219.661 114.44l22.78 3.255 31.457-4.34 32.543-2.71 6.508-6.51 24.407 19.526 7.593 13.017s-4.339 13.017-7.05 14.102c-2.713 1.084-19.526 7.05-19.526 7.05l-10.848 17.899-15.186 30.915-7.593 15.729-9.22 1.627-1.085-18.983 8.135-18.983 8.678-18.983 8.136-23.865 4.881-10.847-1.627-6.508L289.627 128l-22.237 4.881-10.305 7.051-21.153 4.34-8.678 2.169-3.796-15.73-2.712-9.22z" stroke="#000"/><path d="M64.542 212.61s46.102-20.068 48.272-20.068c2.17 0 56.406-9.762 56.406-9.762l27.119-4.34 48.814-8.135 80.813-5.424 43.39-2.712 38.508 1.628 26.577 14.101 8.678 9.763s-9.22 4.339-11.933 3.797c-2.711-.543-24.406-6.509-28.203-8.136-3.797-1.627-36.339-4.339-36.339-4.339h-41.22l-61.83 2.712-53.153 4.339-41.763 8.678-34.17 10.847-32.542 12.475-16.271 13.017-18.44-8.678zM157.288 238.644l80.814-22.78 67.254-8.135 18.983 5.966 9.22 8.678s-17.356 5.966-19.525 5.966c-2.17 0-17.356-3.254-17.356-3.254l-24.95 5.423-21.152.543-23.864 1.627-22.78 4.881-15.186 8.136-13.56 5.966-12.474-6.508zM132.339 280.95l68.339-20.069 58.576-9.762 40.678-1.627 9.22-3.797 28.204 8.678 9.763 5.424v9.762l-24.95-2.17-21.694-4.338-24.407-1.627-24.95 2.712-30.915 6.508-39.05 11.39-22.78 13.56-14.102-2.713z" stroke="#000"/><path d="M235.39 52.61l26.576 17.356 8.678 17.898-2.17 20.068L256 151.322l-3.797 43.39v10.305l-1.627 39.593 1.627 33.627-1.627 18.441L246.78 320l-11.39 5.424-1.085-17.899 2.17-17.898 3.254-16.271.542-31.458-3.796-36.881 4.88-11.932-.541-29.288 2.17-12.475-.543-41.22 7.05-4.882-2.711-13.017-4.882-8.678-9.22-8.135-2.17-12.475z" stroke="#000"/><path d="M110.102 325.966l110.644-24.95 49.356-9.22 51.525-2.711 18.44-1.085 30.374 7.593 9.762 5.424.543 8.136s-9.22 7.05-15.187 5.966c-5.966-1.085-30.373-8.136-30.373-8.136l-33.084-4.881-40.678 5.966-45.017 3.254-41.22 14.102-30.916 8.135-15.729 8.678-14.644-5.966-4.881-4.339zM165.966 349.288l2.712 20.61 13.017 22.238 6.508 9.762 4.882 30.373 3.796 13.017 4.882 11.932 14.644 1.085-1.627-21.152-6.509-18.441-3.796-24.95-5.967-22.779v-7.05l-15.186-9.221-9.763-8.678-5.966-1.627zM201.763 349.288l58.576-16.813 33.085-2.712 21.152-7.594 16.271 3.255L352 341.153s1.085 10.305 1.085 13.016c0 2.712-8.678 18.441-8.678 18.441s-7.051 22.78-7.051 24.95c0 2.169-3.797 29.287-3.797 29.287l-5.423 21.695-11.933 22.238-10.305-21.695-5.966-27.661v-16.271l3.797-.543 7.593 5.966 5.424-12.474 11.39-43.39-3.797-14.644s-25.492.542-28.746 2.17c-3.254 1.626-27.66 6.508-32.542 7.593-4.882 1.084-27.119 10.305-30.373 11.39-3.254 1.084-23.322 3.254-23.322 3.254z" stroke="#000"/><path d="M213.153 400.271l34.711-14.102 24.407-5.966 10.305 10.305s-1.627 5.424-3.796 5.967c-2.17.542-21.153 2.711-21.153 2.711l-17.898 2.17-5.966 8.136-9.763 1.084-8.678-8.135z" stroke="#000"/><path d="M188.746 445.288l111.186-23.864 33.627 5.423 7.594 9.763-5.424 2.17-36.34 7.593-8.677-2.17-38.509 4.34-21.152 6.508-21.695 8.678-13.56-9.22z"/></svg>