<svg xmlns="http://www.w3.org/2000/svg" width="512" height="512"><path d="M131.162 100.104l23.778 32.216 13.04 34.516 10.738 19.176 6.904-12.273s-2.302-20.71-3.836-23.778c-1.534-3.068-9.204-21.477-9.204-21.477l-17.642-16.107-16.874-16.108zM171.048 77.86l57.527-6.903 32.216-4.602s52.158-9.971 55.226-9.971c3.068 0 31.448-4.603 35.283-4.603 3.835 0 39.119-3.835 39.119-3.835l29.147 3.068 9.204 23.011s-15.34 17.642-18.408 19.943c-3.068 2.301-17.642 23.778-17.642 23.778l-11.506 13.807-15.34-16.875 16.107-19.176 6.904-20.71s-6.136-9.204-10.739-9.204c-4.602 0-33.749 5.37-36.817 5.37-3.068 0-32.982 4.601-32.982 4.601l-40.653 4.602-22.244 5.37-13.04 3.835s-19.175 6.903-25.312 9.971c-6.136 3.068-21.476 9.972-21.476 9.972l-6.137-3.068-3.068-18.41z"/><path d="M236.246 93.201l6.903 42.187s11.505 1.534 11.505-3.068c0-4.603.767-20.71.767-20.71l-3.835-16.108-13.04-6.903zM299.91 80.929v23.01l-2.302 18.41s16.875 6.902 18.409 3.067c1.534-3.835 8.437-16.874 8.437-16.874l-.767-16.875-9.204-13.04z"/><path d="M193.292 139.223l49.857-3.835 35.283-5.37 38.352-6.136 27.613-6.903 21.477-2.301 15.34 16.875-46.788 8.437h-36.818l-38.351 9.204-32.216 4.602-16.107 13.04-7.67-13.04-7.671-5.369zM178.718 186.012l2.301 9.971-7.67 27.613-13.04 15.34s-10.738 6.904-15.34 9.205-17.642 6.137-20.71 8.438c-3.068 2.3-8.437 10.738-8.437 10.738v13.807s6.903 5.369 11.505 2.3c4.602-3.067 23.778-11.505 23.778-11.505s14.574-4.602 18.409-5.369c3.835-.767 16.108-3.835 16.108-3.835s10.738-5.37 7.67 0c-3.068 5.37-6.903 12.272-12.273 16.108-5.369 3.835-11.505 6.903-11.505 6.903l19.176-8.438s14.573-10.738 17.641-13.806c3.068-3.068 14.574-11.506 14.574-11.506l9.204-14.573V225.13l-9.204-1.534s-5.37 15.34-6.136 18.41c-.767 3.067-7.67 5.368-16.875 7.67-9.204 2.3-12.272 3.067-19.943 3.067h-19.176s13.807-13.039 18.41-16.107c4.601-3.068 11.505-8.438 16.107-13.807 4.602-5.369 9.204-13.806 9.204-13.806l-.767-16.108-16.107-19.176z"/><path d="M188.69 277.288l-45.255 26.847-23.778 11.505-8.437 3.835 6.136 10.739 6.136 9.971h2.301l20.71-7.67 20.71-6.137 13.806-6.903s12.273-3.835 9.205-3.835c-3.068 0-23.011-4.602-23.011-4.602l-14.574-2.301zM207.098 309.504l-23.778 18.409-21.476 10.738-2.302 6.903 26.08-4.602 23.01-12.272 9.205-9.972zM295.307 158.399s2.301 17.641 0 23.778c-2.301 6.136-20.71 33.749-20.71 33.749l-23.01 22.244-9.972 11.505-19.176 24.545-7.67 16.875-7.67 18.409 10.738 9.204 28.38-33.75 9.971-23.01 17.642-16.108 19.176-16.107 15.34-20.71 13.807-11.506 5.37-11.505-7.671-14.574-11.505-4.602zM98.947 385.44l35.283-3.068 32.983-13.04 29.914-8.437 41.42-16.108s-10.739 12.273-13.807 13.04c-3.068.767-32.982 16.107-32.982 16.107s-16.875 12.273-21.477 14.574-36.818 19.943-40.653 21.477c-3.835 1.534-19.943-4.602-19.943-4.602l-9.971-9.972z"/><path d="M185.622 262.715l-52.159 46.789 19.176-.767 49.09-40.653zM283.034 243.54l3.836 29.913-4.603 36.818-6.136 49.857-5.369 62.896v38.352l-6.903 34.516 9.971 13.04s6.136-3.068 6.903-13.04c.767-9.971 5.37-23.01 5.37-28.38 0-5.369 0-32.215 1.534-35.283 1.534-3.068 6.903-29.914 6.903-29.914l1.534-65.198-5.37-32.982 11.506-40.653v-21.477l-11.505-4.602zM308.346 248.141l67.5-16.874 30.68-7.67 20.71 8.437s-1.534 7.67-4.602 7.67c-3.068 0-16.108-1.534-22.244-.767-6.136.767-19.943.767-23.01 3.068-3.069 2.301-15.341 9.971-15.341 9.971l-37.585 14.574-14.573 4.602-7.67-7.67 9.204-15.34zM319.852 297.998l26.846-11.505 31.448-5.37 20.71 6.904s-13.806 9.204-17.642 9.204c-3.835 0-18.408 1.534-18.408 1.534l-16.108 9.972-21.477-3.835-7.67-7.67zM303.744 344.787s24.545-3.068 28.38-3.835c3.836-.767 23.778-13.806 23.778-13.806l18.41.767 19.175 7.67s-6.136 13.04-9.204 13.806c-3.069.767-17.642 3.069-17.642 3.069s-29.147 5.369-32.215 5.369c-3.069 0-20.71-.767-20.71-.767l-11.506-1.534zM299.142 387.741s31.448-5.37 35.284-6.903c3.835-1.534 36.817-7.67 36.817-7.67l32.982-1.535 19.176 13.807s10.739-5.37 11.506-2.301c.767 3.068-.767 13.04-9.972 13.04-9.204 0-50.624-8.438-50.624-8.438l-42.954 3.835-23.01 9.204-13.807 1.535z"/><path d="M345.164 199.818s1.534 11.506 1.534 15.341c0 3.835-1.534 16.875-1.534 16.875l.767 39.118.767 15.34v22.245l9.204 18.409L349 363.963V383.139l16.108 2.3 2.3-25.311-8.436-42.187 3.835-19.176 9.204-23.778-9.971-23.01 12.272-31.449-2.3-12.272-17.643-13.04z"/></svg>