<svg xmlns="http://www.w3.org/2000/svg" width="512" height="512"><path d="M129.628 31.839l42.954-5.37 33.75-5.369 25.311-8.437 32.983-6.136 31.448 2.3 14.574 5.37s7.67 16.107 4.602 16.875c-3.068.767-34.517 4.602-37.585 3.835-3.068-.767-33.75-.767-33.75-.767l-31.447 11.505h-45.255l-10.739 9.204H137.3l-7.67-9.204zM112.754 79.394l1.534 19.943 4.602 16.108-1.534 24.545 2.3 25.312.768 17.642 3.835 6.136 8.437 6.136 13.04-11.505 1.534-25.312v-27.613l3.068-20.71-9.204-15.34-7.67-14.575-9.972-3.068z"/><path d="M220.905 40.276s-3.835 55.226-3.835 58.294c0 3.068.767 47.556.767 52.158 0 4.603-6.136 55.994-6.136 55.994l.767 27.613 13.04 6.136s11.505-4.602 13.039-8.437c1.534-3.835-.767-39.119-.767-39.119s8.437-26.846 8.437-29.914c0-3.068-4.602-29.914-4.602-29.914l-.767-20.71-.767-19.943 6.903-19.943 10.738-7.67V50.247s1.535-6.136-2.3-6.136c-3.836 0-11.506-9.971-11.506-9.971zM151.872 76.326l38.352-11.505 16.874-3.068s11.506 9.204 9.205 12.272c-2.301 3.068-17.642 17.642-17.642 17.642l-29.914 11.505-13.04-6.903-3.835-7.67zM161.844 127.717l27.613-11.505s2.3-4.602 5.369-4.602c3.068 0 17.642 0 17.642 3.068s2.3 16.875 2.3 16.875l-17.641 17.641s-19.176 8.438-23.778 7.67c-4.602-.766-13.807-15.34-13.807-15.34z"/><path d="M55.993 216.693l48.323-16.875 85.14-28.38 22.245-3.835 44.487-4.602 3.069 16.108-9.972 13.039-65.198 11.505-40.652 2.302-32.215 16.107-19.176 10.739s-17.642 5.369-20.71 5.369c-3.068 0-17.642-4.602-17.642-4.602z"/><path d="M266.927 91.667s32.215-10.738 38.351-13.04c6.137-2.3 33.75-12.272 36.818-12.272 3.068 0 31.448-3.068 31.448-3.068s11.506 5.369 8.437 12.272c-3.068 6.904-34.516 35.284-34.516 38.352 0 3.068-18.409 25.312-18.409 25.312l-7.67 9.971-35.283 27.613-16.875 10.739-9.971-8.437L256.188 163l42.187-25.312 19.176-22.244 16.108-16.108 1.534-6.903-31.449 19.943-22.244.767-9.971-11.506z"/><path d="M256.955 135.388h33.75l64.43 14.573 30.682 6.904 40.652 12.272 19.943 7.67s26.08 8.438 29.147 10.739c3.068 2.3 9.205 5.37 12.273 8.437 3.068 3.068 16.874 10.739 16.874 10.739s1.535 5.369.767 9.204c-.767 3.835-1.534 5.37-6.136 9.204-4.602 3.836-16.107 8.438-21.477 7.67-5.369-.766-20.71-7.67-30.68-13.806-9.972-6.136-31.45-17.642-31.45-17.642l-37.584-14.573-39.885-13.807-16.875-6.136-58.294-15.34-7.67-8.438zM279.966 211.324l-19.175-3.068-35.284 32.215-36.817 20.71-14.574 9.971 7.67 17.642 19.176-6.903s24.545-13.04 29.147-14.574c4.603-1.534 50.624-27.613 50.624-27.613l.767-15.34z"/><path d="M144.202 248.908s-10.739 19.943-13.807 22.244c-3.068 2.301-6.903 13.04-12.272 16.875-5.37 3.835-23.011 12.272-23.011 12.272s-10.739 9.972-12.273 13.04c-1.534 3.068-1.534 15.34-1.534 15.34l13.04 6.904s16.107-5.37 19.176-11.506c3.068-6.136 3.068-7.67 13.04-16.107 9.97-8.438 18.408-13.807 23.01-16.108s11.506-8.437 11.506-8.437l13.04-12.273-7.671-21.477-16.108-6.136zM155.707 301.833s-.767 23.778-2.3 27.614c-1.535 3.835-11.506 20.71-11.506 20.71s-2.301 16.874-6.136 19.942c-3.836 3.068-25.313 31.449-25.313 31.449L95.88 420.723s-10.739 3.068-13.807 4.602c-3.068 1.535-18.408 1.535-18.408 1.535l-5.37 15.34 8.438 15.34 19.943-9.97c6.136-3.069 14.573-4.603 19.942-11.506 5.37-6.903 12.273-14.574 14.574-19.176 2.301-4.602 16.875-22.244 19.943-24.545 3.068-2.3 16.107-13.04 20.71-21.477 4.602-8.437 8.437-13.806 9.971-19.176 1.534-5.369 10.738-23.01 10.738-26.079 0-3.068 1.534-10.738 1.534-10.738l-9.204-12.272-10.738-3.836zM227.041 274.22l-6.136 28.38-5.37 19.943-15.34 9.205.767 16.874 13.807 9.972s4.602 7.67 3.835 16.874c-.767 9.205-9.205 37.585-9.205 41.42 0 3.835-2.3 18.409-3.068 25.312-.767 6.903-3.068 29.147-3.068 29.147l4.602 21.477s8.438-2.3 11.506-4.602c3.068-2.301 13.04-7.67 13.806-13.04.767-5.369 4.603-24.544 5.37-31.448.767-6.903.767-26.846.767-30.681 0-3.835 2.3-24.545 2.3-24.545v-20.71c0-3.068-1.533-17.642-1.533-17.642l21.477-8.437s22.243 10.739 23.778 15.34c1.534 4.603 7.67 17.642 10.738 20.71 3.068 3.069 25.312 8.438 27.613 13.807 2.301 5.37 19.943 16.875 23.011 21.477 3.068 4.602 30.681 19.943 30.681 19.943s23.778.767 30.682.767c6.903 0 40.652-9.205 47.555-10.739 6.904-1.534 26.847-8.437 26.847-8.437s-10.739-13.807-16.108-15.34c-5.37-1.535-25.312-6.137-33.75-6.137-8.437 0-43.72-6.903-49.09-10.738-5.369-3.835-39.118-17.642-39.118-17.642l-22.244-13.04-24.545-11.505-13.04-15.34s18.41-8.438 22.244-10.739c3.836-2.301 24.545-21.477 24.545-21.477s15.341-12.272 22.244-16.875c6.904-4.602 32.216-23.01 32.216-23.01l7.67-16.108s-3.068-9.205-6.136-11.506c-3.068-2.3-23.778-11.505-23.778-11.505s-13.807-.767-15.34 6.903c-1.535 7.67 2.3 11.506-.768 19.943-3.068 8.437-11.505 19.176-21.477 25.312-9.971 6.136-38.351 29.914-38.351 29.914l-15.341 9.972-19.176-5.37v-13.806l-3.068-13.04-11.505-3.068z"/></svg>