<svg xmlns="http://www.w3.org/2000/svg" width="512" height="512"><path d="M185 77.714c-2.857 9.286-2.857 10-2.857 10.715 0 .714 6.428 25.714 6.428 25.714l9.286 13.571 5.714 11.429v9.286L175.714 152l-19.285 6.429L145 164.143 149.286 177l3.571 13.571 11.429 3.572 17.857-9.286 11.428-12.143 10-.714 5.715 13.571 3.571 12.143L226.43 197s-.715-14.286-.715-17.143c0-2.857 2.143-14.286 2.143-14.286L225 152l-1.429-15-2.142-13.571-4.286-14.286-8.572-9.286-12.142-14.286zM268.571 46.286l5.715 12.857L267.143 132l-5 27.857-8.572 23.572-6.428 10.714 1.428 11.428 19.286.715 5.714-15.715L279.286 162 290 152.714l15.714 2.143 17.143-5.714 21.429-7.857 12.143-5 2.857-10-12.143-8.572-16.429-5-12.857.715L295.714 122l-3.571 2.857 3.571-20 5.715-19.286 7.142-12.142-4.285-13.572-17.857-14.286-9.286-2.857zM154.286 258.429l2.143 20.714 16.428 25.714 7.857 21.429V332L155 339.857l-36.429 8.572-27.857 10.714-28.571 10.714-14.286 4.286 6.429 14.286 8.571 14.285 5 .715 10-10.715 23.572-12.857L127.857 362 160 347.714l26.429-10L205 334.857l47.857-8.571 44.286-5.715 38.571-1.428 20.715.714L382.857 322l22.857 5 27.857 12.857 15.715 15 16.428 3.572 6.429-7.143-7.857-17.143-7.143-10-10.714-3.572-7.143-1.428-17.857-9.286-9.286 2.857-22.857-4.285h-42.143l-15.714 1.428L308.57 312l-55.714 3.571-32.857 5-22.857 2.858h-4.286l-2.857-20-6.429-19.286-11.428-14.286-10-8.571z"/><path d="M183.571 246.286L234.286 237l7.143-10 12.142-4.286.715 7.857 32.143-5 15.714-5L330 218.43 344.286 232l-10 26.429-15.715 35-10 16.428-11.428 10.714-12.857-9.285 17.857-47.857 10.714-27.143-55 6.428-.714 31.429L255 301.286l-2.143 14.285-15 2.858 3.572-60.715-7.143-4.285-12.857 5s-7.143 7.142-11.429 7.142c-4.286 0-13.571 1.429-13.571 1.429l-9.286-10zM209.286 384.143l-16.429 23.571-14.286 15.715-12.142 9.285-10.715.715-5 12.857.715 11.428 25-6.428S198.57 432 200.714 429.143c2.143-2.857 10-16.429 10-16.429l2.857-17.143zM290.714 368.429l8.572 20 16.428 22.857 10.715 18.571 11.428 15.714 10.714 9.286 3.572-13.571-4.286-30.715-12.143-27.142-16.428-12.858-20-5z"/></svg>