<svg xmlns="http://www.w3.org/2000/svg" width="512" height="512"><path d="M66.17 131.254l-5.424 5.966 1.627 11.933 10.305 10.305 9.22 6.508 7.051 24.407s8.136 18.44 8.678 21.152c.542 2.712 3.254 11.933 3.254 11.933l15.187-6.509-5.424-17.356-3.254-14.644-2.17-9.763-6.508-11.932-4.34-9.762-5.965-12.475-4.34-8.136-10.847-2.712z"/><path d="M102.508 134.508l24.95-3.796 22.237-4.34s9.22-1.084 11.932-6.508c2.712-5.423 9.22-11.39 9.22-11.39l14.645 13.018 4.339 9.762s3.796 9.763 2.169 11.932c-1.627 2.17-6.508 8.678-8.678 10.306-2.17 1.627-3.797 5.423-4.339 7.593-.542 2.17-6.508 25.491-6.508 25.491l-7.051 19.526 3.796 2.17 7.594 4.88.542 11.933-27.661-1.627-18.983 5.966-18.44 8.678s-9.764 4.339-13.56 6.508c-3.797 2.17-9.763 2.712-9.763 2.712l-8.135-8.678-2.17-7.05 3.254-5.967L93.288 224l32-13.017 20.068-1.627s3.797-13.56 4.339-16.814c.542-3.254 5.424-18.44 5.424-18.44l1.084-17.356-1.084-9.22-10.848-1.628s-11.932 2.17-16.271 4.34c-4.339 2.169-11.39 3.796-11.39 3.796l-10.305-1.627-4.881-8.136-3.797-5.424zM116.068 255.458l3.254 20.067-2.17 23.865v36.881l.543 43.932s-8.678 6.509-11.39 7.051c-2.712.543-21.152 3.254-21.152 3.254l-2.712-37.966-1.085-17.356-2.712-18.983-7.593-14.101-9.763-13.56-8.678-7.05-5.424-2.712s-.542 8.135-.542 11.39c0 3.254 2.712 17.898 4.881 20.61 2.17 2.712 8.678 7.593 9.22 10.305.543 2.712 4.882 15.186 4.882 16.813 0 1.627 3.797 22.78 3.797 22.78l4.881 28.203s-2.712 11.39-4.881 11.933c-2.17.542-24.95 8.678-28.746 10.847-3.797 2.17-21.695 1.085-21.695 1.085l-2.712 10.847s5.966 7.051 7.051 8.678c1.085 1.627 3.797 8.136 4.881 10.305 1.085 2.17 8.136 6.509 8.136 6.509l9.763-10.848s5.966-9.762 9.22-10.847c3.254-1.085 15.729-8.678 18.44-9.763 2.713-1.085 20.61-10.305 23.865-11.932l20.61-10.305s8.136-2.17 10.305-2.17c2.17 0 22.238 2.17 22.238 2.17l21.695 1.085s5.423-2.712 4.339-6.509c-1.085-3.797 0-4.881-1.628-8.135-1.627-3.255 3.255-11.39-3.254-10.848-6.508.542-15.186 2.712-18.44 3.254-3.255.543-18.441 5.424-18.441 5.424s-5.966-4.339-5.424-8.136c.542-3.796 3.254-27.118 3.254-27.118l.543-27.119-.543-27.66 2.712-15.73 3.797-10.847-4.882-7.593-12.474-5.966-4.881 3.796zM155.119 263.593l17.898 10.848 6.508 7.05 3.255 8.678s1.084 5.967 0 8.678c-1.085 2.712-1.627 6.509-3.797 8.136-2.17 1.627-2.712 3.797-8.136 1.627-5.423-2.17-7.593-13.56-7.593-13.56l-5.966-13.016-5.424-9.763-.542-5.966zM257.085 124.203L256 144.271s4.881 14.644 2.712 16.271c-2.17 1.627-7.593 11.933-9.22 14.102-1.628 2.17-8.678 13.56-8.678 13.56s-7.051 10.304-9.22 12.474c-2.17 2.17-6.51 9.763-6.51 9.763s2.17 4.881 2.713 8.135c.542 3.255 5.423 5.966 5.423 5.966l9.22-8.135 3.797-9.22 13.56 13.559 10.305 6.508 7.593 7.051-16.814 30.373s-14.644 19.525-17.356 22.78c-2.711 3.254-13.017 15.728-17.356 20.067-4.338 4.34-20.067 26.034-22.78 29.289-2.711 3.254-16.813 15.186-16.813 15.186s-7.05 10.847-7.593 13.017c-.542 2.17-.542 6.508-.542 6.508s5.423 0 9.22-2.17c3.797-2.169 14.644-13.016 17.356-17.355 2.712-4.339 26.576-31.458 26.576-31.458s18.44-16.813 20.068-20.61c1.627-3.796 10.305-15.729 14.102-20.068 3.796-4.339 21.152-23.864 22.237-26.033 1.085-2.17 4.339-7.051 6.508-7.051 2.17 0 10.848 5.423 12.475 9.22 1.627 3.797 4.881 11.932 7.05 12.475 2.17.542 7.052 5.423 9.221 8.135 2.17 2.712 8.678 9.763 10.305 11.932 1.627 2.17 12.475 9.763 14.644 10.305 2.17.543 7.594 6.509 9.22 9.22 1.628 2.713 6.51 3.255 6.51 3.255l10.847 3.254s7.05 2.712 8.135 6.509c1.085 3.796 13.017 9.762 13.017 9.762l11.39 5.424s2.712 7.593 5.966 10.848c3.254 3.254 9.22 8.135 9.22 8.135l7.051 8.136s3.797 1.085 5.966.542c2.17-.542 14.102-7.05 14.102-7.05l7.593-2.17 9.763-6.509s-3.797-2.17 1.085-3.796c4.881-1.627 11.39-1.085 11.39-1.085l14.644 3.797 1.627-9.22s-3.254-6.51-6.509-7.594c-3.254-1.085-13.559-3.797-15.728-4.339-2.17-.542-20.068-5.966-20.068-5.966l-18.983-5.424c-3.797-1.084-24.95-9.22-24.95-9.22l-16.27-7.593-15.187-9.22-18.983-9.763-13.56-11.933-10.847-8.135-10.305-7.593-11.39-7.051-10.305-11.932 2.17-13.017s11.932-16.814 13.017-20.068c1.084-3.254 10.847-22.237 10.847-22.237s6.508-3.255 7.05-6.509c.543-3.254 7.052-21.695 7.052-21.695l8.678-8.135 7.593-9.22-7.051-5.967-11.932-3.796-10.305 7.05-4.34 7.594s0 4.339-2.711 5.966c-2.712 1.627-10.848 3.254-10.848 3.254l2.712 7.05L320 162.713s-5.424 8.135-7.05 10.847c-1.628 2.712-8.679 13.017-10.306 16.814-1.627 3.796-6.508 15.729-8.136 17.898-1.627 2.17-7.593 9.22-7.593 9.22l-14.101-7.05s-3.797-.543-6.509-4.882c-2.712-4.339-4.339-8.678-5.424-10.847-1.084-2.17-2.712-8.678-.542-10.848l8.136-8.135c3.796-3.797 5.423-20.61 5.423-20.61s-1.084-8.136-2.17-10.848c-1.084-2.712-3.253-13.56-3.253-13.56l-4.882-4.338z"/><path d="M222.373 352l-1.085 17.898 5.424 8.136 6.508 6.508s3.797 14.102 3.797 18.441c0 4.339 2.17 11.39 2.17 14.644 0 3.254 1.084 8.136 0 13.017-1.085 4.881-1.628 16.814-1.628 18.983 0 2.17 0 13.017.543 15.187.542 2.169 7.593 7.05 7.593 7.05l6.508-.542s1.085-8.678.543-11.932c-.543-3.254-.543-9.22 0-14.644.542-5.424 1.627-20.61 2.17-22.78.542-2.17 1.626-11.932 1.626-14.644 0-2.712 1.085-16.814-.542-19.525-1.627-2.712-3.254-9.22-3.797-11.933-.542-2.711-2.711-6.508-2.711-6.508l-7.594-13.56s-1.627-3.254-4.339-3.254h-11.39z"/><path d="M238.102 357.424L288 343.864l25.492-3.796 9.22-1.085-.543-7.593 8.678-4.34s12.475 5.425 13.017 7.594c.543 2.17 6.509 10.305 6.509 10.305s2.712 9.22 1.085 11.39c-1.627 2.17-5.424 9.763-5.424 9.763l-7.05 1.627s1.084 4.339-1.086 8.678-3.796 11.39-4.881 13.56c-1.085 2.169-1.627 6.508-1.085 9.22.543 2.711 1.085 4.338.543 11.39-.543 7.05-1.085 4.88-1.085 4.88l6.508 5.424s-2.17 4.882-4.339 5.966c-2.17 1.085-7.05 1.085-7.05 1.085s-11.39 3.797-15.187 2.712c-3.797-1.085-12.475-1.627-12.475-1.627l-16.813 5.966h-9.763l-8.678 3.254-4.339 1.085-10.847 2.17 1.085-14.645 15.186-4.88L289.085 416l16.813-4.881 7.594-4.34s1.627-5.965 1.627-8.677c0-2.712.542-13.017.542-13.017s2.17-15.187 2.17-17.356c0-2.17 1.084-8.136 1.084-8.136l-7.05-4.881-16.272 2.712-13.56 4.339-13.016 6.508-8.136 2.712-14.644 3.254z"/></svg>