<svg xmlns="http://www.w3.org/2000/svg" width="512" height="512"><path d="M87.442 81.696l21.476 17.641 11.506 4.602s-4.602 18.41-4.602 22.244c0 3.836.767 14.574.767 14.574l26.079-13.04 32.982-11.505 26.08 2.301 3.834 14.574-31.448 6.903-19.943 6.136-18.409 9.205-14.573-3.069"/><path d="M87.442 81.696l3.068 41.42-8.438 24.544 8.438 16.875 6.136 16.108-6.136 11.505 4.602 15.34 19.176 5.37 25.312-8.437 26.079 2.3.767-13.806 29.914-11.505s16.875-4.603 13.807-6.137c-3.069-1.534-20.71-3.068-28.38-1.534-7.67 1.534-39.12 9.205-39.12 9.205l-26.078-7.67s5.369 14.573 1.534 15.34c-3.835.767-13.04-5.37-13.04-5.37l6.904-30.68 23.777.767 29.148-15.341 40.652-6.903-3.835-14.574-26.079-2.301-32.982 11.505-26.08 13.04 3.836-36.818-11.506-4.602-10.738-6.903zM72.1 258.88l43.722-16.108 22.244-6.136 23.01-5.37 13.04-.766s3.068-.767 6.136.767 4.602 9.971 4.602 9.971l-29.914 10.738-17.641 6.137s-15.341 6.903-21.477 9.204c-6.137 2.301-14.574 9.204-14.574 9.204l-11.505 3.069-16.875-8.438zM9.204 327.913l69.8-23.778 23.778.767 32.215-9.972 24.545-14.573 29.148-.767 21.477.767 7.67 7.67-3.835 12.272-37.585-3.835-59.828 16.875-29.914 8.437-28.38 10.739-18.41 8.437-13.039 8.437-13.806-3.835-6.137-5.369-3.835-5.37z"/><path d="M126.56 323.31l.767 34.517 2.301 23.778-3.068 26.846-9.971 4.602h-8.438l9.205 16.875 6.903 10.738 1.534 14.574 3.835 10.738 5.37 5.37 10.738-31.449-3.835-27.613 3.068-36.05.767-16.875v-13.04l5.37-12.272.766-8.438-9.971-8.437h-12.273zM89.743 346.321l5.369 26.846 2.3 16.108-6.902 13.807-17.642 3.068 2.301-15.34v-14.575l5.37-16.107 1.533-6.136zM186.389 339.418l5.369 22.244V372.4l9.204 16.875 6.903 15.34 6.137 2.302 3.835-17.642v-10.738l-6.903-17.642-9.205-8.437-7.67-12.273zM296.841 124.65l29.914 1.533h20.71l19.943-3.835 16.108-9.204 11.505-11.506 9.971-1.534 13.04 22.244 7.67 16.108-18.408 16.108-14.574 6.903-9.971 20.71-3.069 11.505-5.369 20.71-9.204 9.204-7.67-16.874v-13.807l2.3-18.409 9.205-17.641s5.37-16.108 3.835-13.04c-1.534 3.068-40.653 6.903-40.653 6.903l-21.476 3.068-9.972-11.505-4.602-6.903-6.903-8.438 11.505-1.534z"/><path d="M312.182 23.401l16.874-3.835 11.506 9.204 7.67 14.574 2.301 23.01-5.369 18.41-8.437 13.04-1.534 14.573-6.904 41.42-1.534 21.476.767 13.807.767 50.624 3.835 58.294 2.302 34.517 1.534 42.953v37.585l3.835 19.943v19.943s-.767 13.04-3.835 16.874c-3.069 3.835-6.904 9.205-6.904 9.205l-4.602-14.574-6.903-13.806-6.903-10.739 3.068-13.04 9.204-16.874V358.594l-4.602-74.402-5.37-61.363.768-36.817-3.068-32.216 9.204-45.254 2.301-31.449 6.136-21.476v-8.438l-10.738-16.107-4.602-2.302z"/><path d="M224.74 218.227l75.17-22.244 45.254-10.738 55.226-9.205h39.886l17.642-10.738h25.312l24.545 10.738-3.836 10.739-30.68-.767s-19.177-2.301-23.779-1.534c-4.602.767-22.244 2.3-25.312 2.3h-24.545l-59.828 10.74-51.391 18.408-22.244 12.273-12.273 13.806-13.04 4.602-6.135-14.573zM247.751 268.851l34.516-14.573s13.807-.767 18.41-1.535c4.601-.767 45.254-12.272 45.254-12.272l7.67.767 6.137-9.204h11.505l7.67 6.903 19.176-5.37h25.312l14.574 7.671-11.506 9.204H368.175l-10.739 6.904h-14.573l-51.391 18.408-19.176 9.205-19.176 1.534-3.068-7.67zM258.49 311.805l23.777 2.301 9.972 6.136s0 10.739-3.068 11.506c-3.068.767-16.875 5.369-16.875 5.369s-13.04.767-13.04-2.301-1.534-11.506-1.534-11.506zM383.516 297.231l18.408-12.272h17.642l12.273 9.971s-4.603 13.04-7.67 14.574c-3.069 1.534-26.08 8.437-26.08 8.437l-13.806-7.67-6.904-9.205zM244.683 390.042s9.204 12.273 14.574 10.738c5.369-1.534 16.107-5.369 20.71-9.204 4.602-3.835 9.204-13.04 9.204-13.04l9.204-6.903 8.437-14.573s-12.272 3.068-16.874 5.369c-4.602 2.301-16.875 4.602-18.409 7.67-1.534 3.068-30.681 6.136-30.681 6.136-7.67 3.069 0 0 0 0M361.272 350.156h57.527l18.409 10.739s7.67 10.738 6.136 13.806c-1.534 3.069-32.215 0-32.215 0l-33.75 6.904-16.874-13.04-5.37-7.67z"/></svg>