
<svg version="1.1" baseProfile="full" xmlns="http://www.w3.org/2000/svg" width="512" height="512" viewBox="0,0,512,512">

<path d="M130 170 L200 160 " stroke="black"/>
<path d="M120 150 L200 150 " stroke="black"/>
<path d="M130 130 L200 150" stroke="black"/>
<path d="M370 170 L200 150 " stroke="black"/>
<path d="M370 150 L200 150 " stroke="black"/>
<path d="M370 130 L200 150" stroke="black"/>
  <path d="M130 130 L200 150" stroke="black"/>
<circle cx="150" cy="100" r="60" fill="blue" transform="translate(100,50)"></circle>
  <circle cx="150" cy="105" r="50" fill="white" transform="translate(100,50)"></circle>
<circle cx="140" cy="60" r="15" fill="white" transform="translate(100,50)"></circle>
<circle cx="160" cy="60" r="15" fill="white" transform="translate(100,50)"></circle>
<circle cx="140" cy="60" r="10" fill="black" transform="translate(100,50)"></circle>
<circle cx="160" cy="60" r="10" fill="black" transform="translate(100,50)"></circle>
  <circle cx="150" cy="105" r="10" fill="red" transform="translate(100,50)"></circle>
</svg>
