<?xml version="1.0" standalone="no"?>
<!DOCTYPE svg PUBLIC "-//W3C//DTD SVG 1.1//EN" "http://www.w3.org/Graphics/SVG/1.1/DTD/svg11.dtd" >
<svg xmlns="http://www.w3.org/2000/svg" xmlns:xlink="http://www.w3.org/1999/xlink" version="1.1" viewBox="0 0 256 256">
  <g transform="matrix(1 0 0 -1 0 204)">
   <path fill="currentColor"
d="M117 90q17 -6 12 -12q-2 -6 -2 -10q5 1 56 6q8 6 13 7q2 -2 8 -3q12 -2 20 -8q2 -6 -7 -5q-16 8 -50 3q-37 -5 -41 -6q-1 -2 -2 -6v-6q19 -32 47 -52q11 -9 24 -10q29 1 49 -9q3 0 3 -2q0 -1 -3 -1q-20 4 -42 2q-14 -2 -27 11q-32 25 -52 53q-14 -39 -35 -52
q-10 -7 -35 -5q-6 2 1 2q50 8 62 63q-3 3 -8 9q-30 -6 -51 -11q-1 -1 -2 -1q-15 -3 -21 1q-5 1 0 2q9 0 36 6q28 6 47 10q2 14 -2 22q-4 4 2 2zM147 167v-3q-2 0 -2 -3q-5 -29 0 -58q2 -12 7 -17q2 -5 3 -6l-1 -1h-3q-4 -2 -5 1q-4 4 -12 10q-1 1 -1 2q-8 7 -10 11q-2 1 1 1
q2 -2 5 -4l9 -3q4 -3 4 0q-3 13 -4 30q-1 16 0 36q-1 1 -1 3q-1 4 -2 6q-20 -4 -38 -8q-29 -7 -39 0q-2 0 2 1q9 -1 18 1q10 1 34 6q28 5 58 9q2 0 5 1q0 3 3 4h2q3 1 5 1q10 -6 17 -11q0 -3 -5 -3q-5 2 -12 3l-14 2q-7 -1 -21 -4q-8 -1 -12 -1q2 -1 9 -6zM99 158
q7 -2 12 -4q2 -2 1 -3q-3 -3 -2 -7q-1 -16 -2 -30q-7 -30 -30 -37q-3 -1 0 1q20 11 25 37q2 12 1 28q-2 10 -6 13q-1 2 1 2zM159 135q-3 2 2 1q27 -6 42 -15q2 -2 1 -3l-1 -1q-5 -4 -7 -2q-5 0 -12 4q-3 2 -4 3q-10 8 -21 13zM111 206q-1 0 1 1q25 -4 30 -16q-1 -2 -6 -2
q-5 3 -12 3q-3 -1 -4 0t1 3q1 1 1 3q-4 4 -11 8zM82 128h1q-11 -12 -7 -18q0 -3 -1 -3q-2 -3 -4 -1q-12 6 10 23q2 1 1 -1z" />
  </g>

</svg>
