<?xml version="1.0" standalone="no"?>
<!DOCTYPE svg PUBLIC "-//W3C//DTD SVG 1.1//EN" "http://www.w3.org/Graphics/SVG/1.1/DTD/svg11.dtd" >
<svg xmlns="http://www.w3.org/2000/svg" xmlns:xlink="http://www.w3.org/1999/xlink" version="1.1" viewBox="0 0 256 256">
  <g transform="matrix(1 0 0 -1 0 204)">
   <path fill="currentColor"
d="M171 158q-1 1 5 3q3 0 7 -1q1 -1 4 -2q9 -3 12 -5q3 -3 0 -6q-2 -2 -6 0q-9 3 -50 -13q-5 -3 -2 1q1 1 0 2h-3q-6 -1 -14 -4h-2q-7 -2 -17 0q-4 0 0 2q28 3 60 16q4 2 6 7zM143 114v1q7 -5 12 -9q2 -1 2 -2t-1 -2q-2 -3 -3 -6q-6 -32 -10 -45q13 2 24 3q10 1 24 2
q0 5 7 6q4 1 7 -1q5 -5 17 -12q8 -5 14 -8q0 -1 1 -2q3 -2 2 -4q1 -5 -4 -4q-9 1 -19 9q-11 7 -16 9q-4 2 -12 2q-38 2 -92 -16q-18 -8 -28 3q-2 1 2 1q8 -4 34 3q7 2 24 6q4 1 7 2q8 17 10 47q0 11 -4 16q-2 2 2 1zM48 170q-2 1 -1 2t3 1q0 -1 1 -2q5 -4 10 -4q6 -1 18 -8
q3 -7 -4 -8q-10 3 -19 2l-6 -1q0 1 5 4q4 1 4 2q1 2 -2 4q-5 3 -9 8zM43 113q7 2 12 -1q2 -2 0 -5q-3 -2 -8 -2q-1 -1 -3 -1l-1 -1q-3 -3 -3 -2q-1 1 2 5q-10 0 -24 4q-3 0 0 1q18 -1 25 2zM80 92h1q1 3 1 0q-24 -67 -23 -92q-1 -3 -3 -4q-2 0 -4 3q-7 4 -6 24q-1 5 2 1
q2 -9 3 -10t3 4q3 17 26 74z" />
  </g>

</svg>
